<?xml version="1.0" encoding="UTF-8"?>
<svg data-bbox="38.481 35.613 123.037 128.774" xmlns="http://www.w3.org/2000/svg" width="200" height="200" viewBox="0 0 200 200" data-type="color">
    <g>
        <path fill="#000010" d="M100.394 163.123c-8.392 0-16.309-1.417-23.53-4.212-7.477-2.895-14.09-7.102-19.652-12.505-5.627-5.46-10.015-11.981-13.035-19.377-2.938-7.175-4.431-15.013-4.431-23.28 0-8.307 1.562-16.209 4.646-23.486 3.104-7.335 7.566-13.813 13.265-19.243 5.602-5.335 12.215-9.489 19.662-12.357 7.243-2.785 15.123-4.195 23.438-4.195 9.511 0 18.419 2.002 26.48 5.949 7.88 3.865 14.522 9.077 19.746 15.499 8.108 9.962 7.465 24.419-1.495 33.623l-4.144 4.258 4.144 4.256c8.96 9.204 9.603 23.657 1.497 33.619-5.283 6.495-12.066 11.747-20.159 15.612-8.121 3.875-17.012 5.839-26.432 5.839z" data-color="1"/>
        <path fill="#000010" d="M100.394 164.387c-8.552 0-16.62-1.446-23.987-4.297-7.638-2.958-14.394-7.255-20.077-12.775-5.755-5.587-10.24-12.252-13.324-19.806-3.002-7.334-4.525-15.328-4.525-23.759 0-8.478 1.596-16.546 4.747-23.982 3.173-7.502 7.734-14.12 13.556-19.665 5.718-5.446 12.474-9.692 20.08-12.622 7.389-2.839 15.427-4.277 23.893-4.277 9.704 0 18.8 2.044 27.036 6.076 8.046 3.946 14.831 9.274 20.171 15.837 8.513 10.463 7.838 25.64-1.569 35.304l-3.284 3.375 3.284 3.373c9.407 9.664 10.082 24.839 1.572 35.302-5.402 6.642-12.331 12.009-20.594 15.956-8.29 3.956-17.369 5.96-26.979 5.96zm.364-118.653c-8.155 0-15.887 1.381-22.983 4.109-7.295 2.81-13.769 6.877-19.245 12.093-5.567 5.305-9.931 11.636-12.971 18.82-3.017 7.119-4.547 14.856-4.547 22.993 0 8.103 1.458 15.773 4.337 22.801 2.953 7.233 7.24 13.608 12.746 18.951 5.436 5.281 11.906 9.395 19.227 12.232 7.072 2.735 14.834 4.124 23.072 4.124 9.232 0 17.94-1.923 25.889-5.713 7.92-3.783 14.557-8.921 19.722-15.269 7.7-9.467 7.087-23.198-1.423-31.941l-4.144-4.255a1.266 1.266 0 010-1.764l4.144-4.258c8.513-8.745 9.123-22.477 1.421-31.944-5.108-6.277-11.609-11.377-19.321-15.16-7.888-3.862-16.608-5.819-25.924-5.819z" data-color="1"/>
        <path fill="#C2BDFF" d="M107.986 155.532c-8.392 0-16.309-1.417-23.53-4.212-7.477-2.895-14.09-7.102-19.652-12.505-5.627-5.46-10.015-11.981-13.035-19.377-2.938-7.175-4.431-15.013-4.431-23.28 0-8.307 1.562-16.209 4.646-23.486 3.104-7.335 7.566-13.813 13.265-19.243 5.602-5.335 12.215-9.489 19.662-12.357 7.243-2.785 15.123-4.195 23.438-4.195 9.511 0 18.419 2.002 26.48 5.949 7.88 3.865 14.522 9.077 19.746 15.499 8.108 9.962 7.465 24.419-1.495 33.623l-4.144 4.258 4.144 4.256c8.96 9.203 9.603 23.657 1.497 33.619-5.283 6.495-12.066 11.747-20.159 15.612-8.122 3.875-17.013 5.839-26.432 5.839z" data-color="2"/>
        <path fill="#000010" d="M107.986 156.796c-8.552 0-16.62-1.446-23.987-4.297-7.638-2.958-14.394-7.255-20.077-12.775-5.755-5.587-10.24-12.252-13.324-19.806-3.002-7.334-4.525-15.328-4.525-23.759 0-8.478 1.596-16.546 4.747-23.982 3.173-7.502 7.734-14.12 13.556-19.665 5.718-5.446 12.474-9.692 20.08-12.622 7.388-2.839 15.427-4.277 23.893-4.277 9.704 0 18.8 2.044 27.036 6.076 8.046 3.946 14.831 9.274 20.171 15.837 8.513 10.463 7.838 25.64-1.569 35.304l-3.284 3.375 3.284 3.373c9.407 9.664 10.082 24.839 1.572 35.302-5.402 6.642-12.331 12.009-20.594 15.956-8.291 3.956-17.37 5.96-26.979 5.96zm.363-118.653c-8.155 0-15.887 1.381-22.983 4.109-7.295 2.81-13.769 6.877-19.245 12.093-5.567 5.305-9.931 11.636-12.971 18.82-3.017 7.119-4.547 14.856-4.547 22.993 0 8.103 1.458 15.773 4.337 22.801 2.953 7.233 7.24 13.608 12.746 18.951 5.436 5.281 11.906 9.395 19.227 12.232 7.072 2.735 14.834 4.124 23.072 4.124 9.232 0 17.94-1.923 25.889-5.713 7.92-3.783 14.557-8.921 19.722-15.269 7.7-9.467 7.087-23.198-1.423-31.941l-4.144-4.255a1.266 1.266 0 010-1.764l4.144-4.258c8.513-8.745 9.123-22.477 1.421-31.944-5.108-6.277-11.609-11.377-19.321-15.16-7.888-3.862-16.608-5.819-25.924-5.819z" data-color="1"/>
        <path fill="#FFB3BA" d="M98.556 78.533c2.884-1.731 6.15-2.596 9.793-2.596 3.4 0 6.543.773 9.43 2.323a20.512 20.512 0 017.151 6.331l10.02-10.293c-2.916-3.583-6.667-6.498-11.251-8.745-4.586-2.246-9.701-3.371-15.35-3.371-5.224 0-10.005.835-14.347 2.504-4.342 1.672-8.108 4.024-11.295 7.06-3.188 3.038-5.664 6.636-7.423 10.795-1.762 4.16-2.642 8.699-2.642 13.618 0 4.98.848 9.551 2.55 13.709 1.7 4.161 4.112 7.759 7.24 10.795 3.128 3.038 6.847 5.391 11.159 7.06s9.111 2.506 14.394 2.506c5.646 0 10.823-1.124 15.531-3.371 4.705-2.246 8.518-5.161 11.434-8.745l-10.02-10.293c-1.885 2.611-4.268 4.706-7.151 6.285-2.886 1.58-6.029 2.369-9.43 2.369-3.642 0-6.909-.866-9.793-2.597-2.884-1.73-5.145-4.128-6.786-7.196-1.641-3.065-2.459-6.573-2.459-10.522 0-3.946.818-7.438 2.459-10.475s3.902-5.42 6.786-7.151z" data-color="3"/>
        <path fill="#000010" d="M107.986 131.493c-5.417 0-10.413-.872-14.851-2.592-4.448-1.72-8.347-4.186-11.584-7.329s-5.77-6.919-7.529-11.224c-1.754-4.287-2.644-9.059-2.644-14.189 0-5.066.922-9.815 2.743-14.112 1.816-4.297 4.413-8.071 7.715-11.216 3.289-3.133 7.23-5.599 11.713-7.327 4.47-1.717 9.449-2.587 14.802-2.587 5.814 0 11.164 1.176 15.906 3.499 4.73 2.318 8.656 5.372 11.676 9.084a1.265 1.265 0 01-.074 1.68l-10.02 10.294a1.264 1.264 0 01-1.94-.153 19.33 19.33 0 00-6.716-5.945c-2.681-1.441-5.654-2.172-8.832-2.172-3.395 0-6.472.813-9.143 2.414-2.671 1.601-4.796 3.845-6.323 6.667-1.53 2.834-2.306 6.155-2.306 9.874 0 3.721.776 7.062 2.308 9.924 1.525 2.852 3.652 5.108 6.321 6.709 2.671 1.604 5.748 2.417 9.143 2.417 3.17 0 6.141-.744 8.822-2.212 2.701-1.483 4.967-3.472 6.734-5.918.22-.301.561-.494.934-.521.363-.032.736.111.998.381l10.02 10.294c.447.46.479 1.184.074 1.68-3.022 3.714-7.015 6.771-11.871 9.086-4.853 2.317-10.262 3.494-16.076 3.494zm.363-68.046c-5.041 0-9.716.813-13.892 2.419-4.169 1.606-7.828 3.892-10.878 6.798-3.049 2.904-5.449 6.393-7.129 10.369-1.688 3.983-2.543 8.399-2.543 13.126 0 4.799.825 9.249 2.456 13.23 1.626 3.981 3.964 7.47 6.951 10.369 2.99 2.904 6.603 5.187 10.734 6.783 4.146 1.606 8.834 2.422 13.937 2.422 5.434 0 10.475-1.092 14.985-3.247 4.132-1.969 7.581-4.505 10.27-7.542l-8.201-8.429a22.778 22.778 0 01-6.652 5.471c-3.059 1.675-6.437 2.523-10.037 2.523-3.862 0-7.376-.934-10.445-2.777-3.067-1.838-5.506-4.426-7.248-7.683-1.732-3.237-2.609-6.976-2.609-11.12s.877-7.87 2.612-11.075c1.742-3.227 4.181-5.797 7.248-7.636 3.069-1.841 6.583-2.775 10.443-2.775 3.603 0 6.976.833 10.028 2.474a21.796 21.796 0 016.674 5.508l8.192-8.416c-2.684-3.042-6.076-5.577-10.099-7.549-4.397-2.154-9.373-3.243-14.797-3.243z" data-color="1"/>
        <path fill="#000010" d="M107.986 144.144a60.28 60.28 0 01-4.95-.2 1.263 1.263 0 01-1.156-1.364c.057-.699.741-1.194 1.364-1.156 1.537.126 3.133.19 4.742.19a1.265 1.265 0 110 2.53zm-13.656-1.66c-.104 0-.21-.012-.314-.04a49.285 49.285 0 01-5.446-1.74 1.267 1.267 0 01.91-2.363 46.378 46.378 0 005.165 1.651 1.265 1.265 0 01-.315 2.492zm-12.066-4.937a1.25 1.25 0 01-.635-.171 45.813 45.813 0 01-8.893-6.731c-4.495-4.359-8.004-9.578-10.428-15.511a1.266 1.266 0 112.343-.959c2.293 5.609 5.604 10.539 9.847 14.653a43.25 43.25 0 008.402 6.358 1.266 1.266 0 01-.636 2.361zm-21.733-32.515a1.266 1.266 0 01-1.25-1.082 54.28 54.28 0 01-.556-7.791c0-6.771 1.26-13.178 3.744-19.045a1.262 1.262 0 011.658-.67c.642.272.944 1.013.67 1.658-2.35 5.55-3.541 11.626-3.541 18.056 0 2.52.178 5.019.531 7.426a1.267 1.267 0 01-1.256 1.448z" data-color="1"/>
    </g>
</svg>
